<?xml version="1.0" encoding="utf-8"?>
<!-- Generator: Adobe Illustrator 16.0.0, SVG Export Plug-In . SVG Version: 6.00 Build 0)  -->
<!DOCTYPE svg PUBLIC "-//W3C//DTD SVG 1.1//EN" "http://www.w3.org/Graphics/SVG/1.1/DTD/svg11.dtd">
<svg version="1.1" id="Layer_1" xmlns="http://www.w3.org/2000/svg" xmlns:xlink="http://www.w3.org/1999/xlink" x="0px" y="0px"
	 width="2460px" height="897.66px" viewBox="0 0 2460 897.66" enable-background="new 0 0 2460 897.66" xml:space="preserve">
<rect y="-1.34" fill-rule="evenodd" clip-rule="evenodd" fill="#313388" width="2461.026" height="899"/>
<g>
	<path fill="#FFFFFF" d="M1331.057,721.861h-73.791l-154.555-197.379h51.988c29.795,0,54.578-5.184,74.338-15.555
		c26.818-13.945,40.227-35.843,40.227-65.703c0-26.102-11.215-46.931-33.641-62.486c-20.076-13.945-44.307-20.917-72.689-20.917
		h-74.572v362.04h-58.811V307.258h119.975c67.75,0,116.209,15.294,145.381,45.879c19.131,20.034,30.188,48.473,33.168,85.318
		c0.313,3.938,0.471,7.069,0.471,9.39c0,33.451-12.166,62.159-36.5,86.127c-22.451,21.999-48.824,34.611-79.123,37.829
		L1331.057,721.861z"/>
	<path fill="#FFFFFF" d="M1632.204,721.593h-243.713V307.258h243.713v52.563h-184.902v126.848h178.551v52.026h-178.551v130.871
		h184.902V721.593z"/>
	<path fill="#FFFFFF" d="M1765.78,721.861h-58.811V306.99h58.811V721.861z"/>
	<path fill="#FFFFFF" d="M2300.448,721.861h-59.281V400.316l-141.624,321.545h-47.042l-141.146-321v321h-58.811V306.99h78.325
		l145.7,326.569L2221.99,306.99h78.458V721.861z"/>
</g>
<g>
	<path fill="#F2D148" d="M609.896,787.752l2.27-10.701h48.321l-2.271,10.701h-17.35l-9.891,47.186h-12.81l9.891-47.186H609.896z"/>
	<path fill="#F2D148" d="M698.591,777.051c2.594-0.054,4.958,0.176,7.094,0.688c2.135,0.515,3.959,1.379,5.473,2.595
		c1.513,1.216,2.675,2.797,3.486,4.743c0.811,1.945,1.216,4.324,1.216,7.134c0,1.946-0.324,3.811-0.973,5.595
		c-0.648,1.783-1.568,3.364-2.756,4.742c-1.19,1.379-2.595,2.527-4.216,3.446c-1.621,0.92-3.405,1.514-5.351,1.783v0.162
		c2.377,0.758,3.973,2.067,4.783,3.933c0.811,1.864,1.216,3.96,1.216,6.283c0,1.297-0.068,2.852-0.203,4.661
		c-0.136,1.812-0.203,3.608-0.203,5.392c0,1.298,0.053,2.527,0.162,3.689c0.107,1.163,0.324,2.176,0.648,3.04h-12.404
		c-0.162-0.702-0.298-1.364-0.405-1.986c-0.109-0.621-0.163-1.257-0.163-1.905c0-1.945,0.108-3.904,0.325-5.878
		c0.215-1.973,0.324-3.932,0.324-5.878c0-1.405-0.203-2.554-0.608-3.445c-0.405-0.892-0.973-1.607-1.702-2.148
		c-0.73-0.54-1.609-0.905-2.635-1.095c-1.027-0.188-2.162-0.284-3.405-0.284h-11.999l-4.784,22.62h-12.647l12.08-57.887H698.591z
		 M689.997,803.237c1.729,0,3.377-0.175,4.946-0.527c1.567-0.351,2.959-0.892,4.175-1.621s2.189-1.675,2.918-2.838
		c0.73-1.161,1.095-2.554,1.095-4.175c0-1.567-0.257-2.824-0.77-3.771c-0.515-0.944-1.204-1.662-2.067-2.148
		c-0.865-0.486-1.865-0.811-3-0.973c-1.135-0.162-2.325-0.243-3.567-0.243h-12.08l-3.405,16.296H689.997z"/>
	<path fill="#F2D148" d="M762.72,777.051l9.647,57.887H759.72l-1.865-12.891h-21.647l-7.296,12.891h-13.377l34.132-57.887H762.72z
		 M756.72,812.561l-2.838-23.024h-0.162l-12.485,23.024H756.72z"/>
	<path fill="#F2D148" d="M806.337,777.051l15.728,41.186h0.162l8.27-41.186h11.674l-12.242,57.887h-12.729l-15.891-40.618h-0.162
		l-8.27,40.618h-11.837l12.161-57.887H806.337z"/>
	<path fill="#F2D148" d="M858.63,820.871c0.594,1.378,1.459,2.473,2.594,3.283c1.135,0.812,2.485,1.393,4.054,1.743
		c1.567,0.353,3.27,0.527,5.107,0.527c1.297,0,2.595-0.162,3.892-0.486c1.297-0.324,2.473-0.811,3.527-1.46
		c1.054-0.648,1.918-1.485,2.595-2.513c0.675-1.026,1.013-2.271,1.013-3.729c0-1.405-0.433-2.554-1.297-3.446
		c-0.865-0.892-1.986-1.661-3.364-2.311c-1.378-0.648-2.947-1.216-4.703-1.702c-1.757-0.486-3.526-1-5.31-1.54
		c-1.838-0.54-3.622-1.188-5.351-1.946c-1.73-0.756-3.284-1.729-4.662-2.919c-1.378-1.188-2.487-2.647-3.324-4.378
		c-0.838-1.729-1.257-3.837-1.257-6.323c0-3.243,0.675-6,2.027-8.27c1.351-2.271,3.107-4.121,5.27-5.554
		c2.161-1.432,4.607-2.485,7.337-3.162c2.729-0.675,5.499-1.014,8.31-1.014c2.972,0,5.769,0.339,8.391,1.014
		c2.621,0.677,4.917,1.771,6.892,3.283c1.972,1.514,3.539,3.446,4.702,5.797c1.162,2.352,1.743,5.203,1.743,8.554h-12.08
		c0.053-1.622-0.176-2.986-0.689-4.095c-0.514-1.106-1.244-2.013-2.189-2.716c-0.946-0.702-2.067-1.202-3.364-1.5
		c-1.297-0.296-2.676-0.445-4.135-0.445c-1.189,0-2.392,0.121-3.607,0.364c-1.216,0.243-2.311,0.648-3.284,1.217
		c-0.973,0.567-1.757,1.311-2.351,2.229c-0.596,0.919-0.892,2.055-0.892,3.404c0,1.406,0.527,2.582,1.581,3.527
		c1.054,0.946,2.323,1.73,3.811,2.351c1.486,0.622,3.013,1.108,4.581,1.46c1.567,0.352,2.838,0.636,3.811,0.851
		c2.27,0.596,4.35,1.285,6.243,2.068c1.892,0.783,3.527,1.797,4.905,3.04c1.378,1.244,2.445,2.756,3.202,4.54
		c0.756,1.783,1.135,3.973,1.135,6.567c0,3.459-0.717,6.404-2.148,8.837c-1.433,2.432-3.271,4.405-5.513,5.918
		c-2.243,1.514-4.771,2.608-7.581,3.284c-2.811,0.675-5.594,1.013-8.351,1.013c-8.107,0-14.147-1.647-18.12-4.945
		c-3.973-3.296-5.959-8.485-5.959-15.566h12.08C857.792,817.777,858.035,819.493,858.63,820.871z"/>
	<path fill="#F2D148" d="M936.947,777.051c2.919,0,5.607,0.283,8.067,0.851c2.458,0.567,4.581,1.5,6.364,2.797
		c1.784,1.298,3.174,3.028,4.175,5.189c1,2.162,1.5,4.838,1.5,8.026c0,3.189-0.608,6.04-1.824,8.553
		c-1.216,2.514-2.866,4.636-4.946,6.364c-2.081,1.73-4.473,3.055-7.175,3.973c-2.704,0.92-5.568,1.379-8.594,1.379h-15.729
		l-4.378,20.755h-12.647l11.999-57.887H936.947z M933.867,804.291c3.243,0,5.797-0.823,7.662-2.473
		c1.865-1.647,2.797-4.202,2.797-7.661c0-1.46-0.257-2.662-0.77-3.608c-0.515-0.944-1.204-1.674-2.067-2.188
		c-0.865-0.514-1.824-0.878-2.878-1.095c-1.054-0.215-2.148-0.324-3.283-0.324h-10.864l-3.567,17.35H933.867z"/>
	<path fill="#F2D148" d="M965.323,797.319c1.459-4.216,3.553-7.932,6.283-11.148c2.729-3.215,6.053-5.769,9.972-7.661
		c3.918-1.892,8.31-2.838,13.174-2.838c3.892,0,7.431,0.527,10.621,1.581c3.188,1.054,5.891,2.635,8.107,4.743
		c2.215,2.107,3.932,4.702,5.148,7.783c1.216,3.08,1.824,6.647,1.824,10.701c0,4.757-0.703,9.297-2.108,13.621
		c-1.406,4.324-3.446,8.135-6.121,11.432s-5.973,5.905-9.891,7.823c-3.919,1.918-8.419,2.878-13.499,2.878
		c-8.216,0-14.553-2.188-19.012-6.566s-6.688-10.702-6.688-18.972C963.134,805.994,963.864,801.535,965.323,797.319z
		 M976.633,816.371c0.513,1.784,1.297,3.365,2.351,4.743c1.054,1.378,2.405,2.473,4.054,3.283c1.648,0.812,3.635,1.217,5.959,1.217
		c3.134,0,5.864-0.742,8.189-2.229c2.323-1.486,4.269-3.405,5.837-5.757c1.567-2.351,2.743-4.958,3.527-7.823
		c0.783-2.864,1.176-5.676,1.176-8.432c0-2.054-0.23-3.985-0.689-5.797c-0.459-1.811-1.203-3.392-2.229-4.743
		c-1.027-1.351-2.351-2.433-3.973-3.243c-1.621-0.811-3.622-1.216-6-1.216c-3.243,0-6.068,0.743-8.472,2.229
		c-2.406,1.487-4.378,3.405-5.918,5.756c-1.541,2.352-2.689,4.974-3.446,7.864c-0.757,2.893-1.135,5.716-1.135,8.473
		C975.863,812.696,976.119,814.588,976.633,816.371z"/>
	<path fill="#F2D148" d="M1066.748,777.051c2.594-0.054,4.958,0.176,7.094,0.688c2.135,0.515,3.959,1.379,5.473,2.595
		c1.513,1.216,2.675,2.797,3.486,4.743c0.811,1.945,1.216,4.324,1.216,7.134c0,1.946-0.324,3.811-0.973,5.595
		c-0.648,1.783-1.568,3.364-2.756,4.742c-1.19,1.379-2.595,2.527-4.216,3.446c-1.621,0.92-3.405,1.514-5.351,1.783v0.162
		c2.377,0.758,3.973,2.067,4.783,3.933c0.811,1.864,1.216,3.96,1.216,6.283c0,1.297-0.068,2.852-0.203,4.661
		c-0.136,1.812-0.203,3.608-0.203,5.392c0,1.298,0.053,2.527,0.162,3.689c0.107,1.163,0.324,2.176,0.648,3.04h-12.404
		c-0.162-0.702-0.298-1.364-0.405-1.986c-0.109-0.621-0.163-1.257-0.163-1.905c0-1.945,0.108-3.904,0.325-5.878
		c0.215-1.973,0.324-3.932,0.324-5.878c0-1.405-0.203-2.554-0.608-3.445c-0.405-0.892-0.973-1.607-1.702-2.148
		c-0.73-0.54-1.609-0.905-2.635-1.095c-1.027-0.188-2.162-0.284-3.405-0.284h-11.999l-4.784,22.62h-12.647l12.08-57.887H1066.748z
		 M1058.153,803.237c1.729,0,3.377-0.175,4.946-0.527c1.567-0.351,2.959-0.892,4.175-1.621s2.189-1.675,2.918-2.838
		c0.73-1.161,1.095-2.554,1.095-4.175c0-1.567-0.257-2.824-0.77-3.771c-0.515-0.944-1.204-1.662-2.067-2.148
		c-0.865-0.486-1.865-0.811-3-0.973c-1.135-0.162-2.325-0.243-3.567-0.243h-12.08l-3.405,16.296H1058.153z"/>
	<path fill="#F2D148" d="M1092.772,787.752l2.27-10.701h48.321l-2.271,10.701h-17.349l-9.891,47.186h-12.81l9.891-47.186H1092.772z"
		/>
	<path fill="#F2D148" d="M1198.007,777.051l-2.189,10.701h-31.456l-2.595,12.404h29.105l-2.107,9.892h-29.106l-2.999,14.188h31.943
		l-2.271,10.702h-44.591l12.08-57.887H1198.007z"/>
	<path fill="#F2D148" d="M1231.651,777.051h13.054l8.675,24.646l17.998-24.646h14.999l-28.214,35.997l-4.459,21.89h-12.81
		l4.621-22.458L1231.651,777.051z"/>
	<path fill="#F2D148" d="M1334.535,777.051l-9.891,47.185h27.971l-2.271,10.702h-40.699l12.08-57.887H1334.535z"/>
	<path fill="#F2D148" d="M1365.667,797.319c1.46-4.216,3.554-7.932,6.283-11.148c2.729-3.215,6.053-5.769,9.973-7.661
		c3.918-1.892,8.31-2.838,13.175-2.838c3.892,0,7.431,0.527,10.62,1.581c3.188,1.054,5.891,2.635,8.107,4.743
		c2.216,2.107,3.933,4.702,5.148,7.783c1.216,3.08,1.824,6.647,1.824,10.701c0,4.757-0.703,9.297-2.107,13.621
		c-1.406,4.324-3.446,8.135-6.121,11.432c-2.676,3.297-5.974,5.905-9.892,7.823c-3.919,1.918-8.419,2.878-13.499,2.878
		c-8.216,0-14.553-2.188-19.012-6.566s-6.688-10.702-6.688-18.972C1363.479,805.994,1364.208,801.535,1365.667,797.319z
		 M1376.978,816.371c0.513,1.784,1.297,3.365,2.351,4.743s2.404,2.473,4.054,3.283c1.648,0.812,3.635,1.217,5.959,1.217
		c3.134,0,5.864-0.742,8.188-2.229c2.323-1.486,4.27-3.405,5.838-5.757c1.566-2.351,2.742-4.958,3.526-7.823
		c0.783-2.864,1.176-5.676,1.176-8.432c0-2.054-0.23-3.985-0.689-5.797c-0.46-1.811-1.203-3.392-2.229-4.743
		c-1.027-1.351-2.351-2.433-3.973-3.243c-1.621-0.811-3.621-1.216-5.999-1.216c-3.243,0-6.068,0.743-8.473,2.229
		c-2.405,1.487-4.378,3.405-5.918,5.756c-1.541,2.352-2.689,4.974-3.446,7.864c-0.758,2.893-1.135,5.716-1.135,8.473
		C1376.207,812.696,1376.463,814.588,1376.978,816.371z"/>
	<path fill="#F2D148" d="M1470.902,829.02c-1.893,2.594-4.108,4.446-6.648,5.553c-2.541,1.107-5.188,1.662-7.945,1.662
		c-8.216,0-14.553-2.188-19.012-6.566s-6.688-10.702-6.688-18.972c0-4.702,0.729-9.161,2.188-13.377
		c1.46-4.216,3.554-7.932,6.283-11.148c2.729-3.215,6.053-5.769,9.973-7.661c3.918-1.892,8.31-2.838,13.175-2.838
		c3.405,0,6.594,0.405,9.566,1.216c2.972,0.812,5.566,2.056,7.783,3.729c2.216,1.677,3.973,3.798,5.27,6.365
		c1.298,2.567,1.946,5.634,1.946,9.201h-12.729c-0.162-3.567-1.271-6.093-3.324-7.58c-2.055-1.486-4.864-2.229-8.432-2.229
		c-3.243,0-6.068,0.743-8.473,2.229c-2.405,1.487-4.378,3.405-5.918,5.756c-1.541,2.352-2.689,4.974-3.446,7.864
		c-0.758,2.893-1.135,5.716-1.135,8.473c0,2,0.256,3.892,0.771,5.675c0.513,1.784,1.297,3.365,2.351,4.743s2.404,2.473,4.054,3.283
		c1.648,0.812,3.635,1.217,5.959,1.217c2.433,0,4.526-0.311,6.283-0.933c1.756-0.621,3.27-1.472,4.54-2.554
		c1.27-1.081,2.323-2.392,3.162-3.933c0.838-1.54,1.526-3.229,2.067-5.066h-13.377l2.026-9.486h24.566l-6.648,31.295h-8.026v-5.918
		H1470.902z"/>
	<path fill="#F2D148" d="M1517.924,777.051l-12.242,57.887h-12.729l12.161-57.887H1517.924z M1507.79,771.861l7.134-11.513h12.324
		l-11.351,11.513H1507.79z"/>
	<path fill="#F2D148" d="M1534.462,820.871c0.595,1.378,1.46,2.473,2.595,3.283c1.135,0.812,2.485,1.393,4.054,1.743
		c1.567,0.353,3.27,0.527,5.107,0.527c1.298,0,2.595-0.162,3.892-0.486c1.298-0.324,2.473-0.811,3.527-1.46
		c1.054-0.648,1.918-1.485,2.594-2.513c0.676-1.026,1.014-2.271,1.014-3.729c0-1.405-0.434-2.554-1.297-3.446
		c-0.865-0.892-1.986-1.661-3.365-2.311c-1.378-0.648-2.946-1.216-4.702-1.702c-1.757-0.486-3.526-1-5.311-1.54
		c-1.838-0.54-3.621-1.188-5.351-1.946c-1.73-0.756-3.283-1.729-4.662-2.919c-1.378-1.188-2.486-2.647-3.324-4.378
		c-0.838-1.729-1.256-3.837-1.256-6.323c0-3.243,0.675-6,2.026-8.27c1.351-2.271,3.107-4.121,5.271-5.554
		c2.161-1.432,4.606-2.485,7.337-3.162c2.729-0.675,5.499-1.014,8.31-1.014c2.973,0,5.77,0.339,8.392,1.014
		c2.621,0.677,4.918,1.771,6.892,3.283c1.972,1.514,3.539,3.446,4.702,5.797c1.161,2.352,1.743,5.203,1.743,8.554h-12.08
		c0.053-1.622-0.176-2.986-0.689-4.095c-0.514-1.106-1.244-2.013-2.188-2.716c-0.946-0.702-2.067-1.202-3.365-1.5
		c-1.297-0.296-2.675-0.445-4.135-0.445c-1.189,0-2.392,0.121-3.607,0.364s-2.311,0.648-3.283,1.217
		c-0.974,0.567-1.758,1.311-2.352,2.229c-0.596,0.919-0.892,2.055-0.892,3.404c0,1.406,0.526,2.582,1.581,3.527
		c1.054,0.946,2.323,1.73,3.811,2.351c1.485,0.622,3.012,1.108,4.58,1.46c1.567,0.352,2.838,0.636,3.811,0.851
		c2.271,0.596,4.351,1.285,6.243,2.068c1.891,0.783,3.526,1.797,4.904,3.04c1.379,1.244,2.445,2.756,3.203,4.54
		c0.756,1.783,1.135,3.973,1.135,6.567c0,3.459-0.717,6.404-2.148,8.837c-1.433,2.432-3.271,4.405-5.513,5.918
		c-2.244,1.514-4.771,2.608-7.581,3.284c-2.811,0.675-5.594,1.013-8.351,1.013c-8.107,0-14.147-1.647-18.12-4.945
		c-3.973-3.296-5.959-8.485-5.959-15.566h12.08C1533.624,817.777,1533.867,819.493,1534.462,820.871z"/>
	<path fill="#F2D148" d="M1582.215,787.752l2.271-10.701h48.32l-2.271,10.701h-17.35l-9.892,47.186h-12.81l9.892-47.186H1582.215z"
		/>
	<path fill="#F2D148" d="M1656.154,777.051l-12.242,57.887h-12.729l12.161-57.887H1656.154z"/>
	<path fill="#F2D148" d="M1701.677,789.09c-1.919-1.811-4.419-2.716-7.499-2.716c-3.243,0-6.068,0.743-8.473,2.229
		c-2.405,1.487-4.378,3.405-5.918,5.756c-1.541,2.352-2.689,4.974-3.446,7.864c-0.758,2.893-1.135,5.716-1.135,8.473
		c0,2,0.256,3.892,0.771,5.675c0.513,1.784,1.297,3.365,2.351,4.743s2.404,2.473,4.054,3.283c1.648,0.812,3.635,1.217,5.959,1.217
		c1.729,0,3.365-0.311,4.905-0.933c1.54-0.621,2.904-1.459,4.094-2.514c1.188-1.054,2.189-2.282,3-3.688
		c0.811-1.405,1.351-2.864,1.622-4.378h12.729c-1.298,4.054-2.825,7.486-4.581,10.296c-1.757,2.812-3.729,5.096-5.918,6.852
		c-2.189,1.757-4.621,3.027-7.297,3.811c-2.676,0.782-5.582,1.175-8.716,1.175c-8.216,0-14.553-2.188-19.012-6.566
		s-6.688-10.702-6.688-18.972c0-4.702,0.729-9.161,2.188-13.377c1.46-4.216,3.554-7.932,6.283-11.148
		c2.729-3.215,6.053-5.769,9.973-7.661c3.918-1.892,8.31-2.838,13.175-2.838c3.351,0,6.458,0.46,9.323,1.379
		c2.864,0.919,5.337,2.283,7.418,4.094c2.08,1.812,3.689,4.054,4.824,6.729c1.135,2.675,1.675,5.77,1.621,9.283h-12.729
		C1704.555,793.59,1703.595,790.901,1701.677,789.09z"/>
	<path fill="#F2D148" d="M1764.631,777.051l9.648,57.887h-12.647l-1.865-12.891h-21.646l-7.297,12.891h-13.378l34.133-57.887
		H1764.631z M1758.632,812.561l-2.838-23.024h-0.162l-12.485,23.024H1758.632z"/>
	<path fill="#F2D148" d="M1823.005,820.871c0.595,1.378,1.46,2.473,2.595,3.283c1.135,0.812,2.485,1.393,4.054,1.743
		c1.567,0.353,3.27,0.527,5.107,0.527c1.298,0,2.595-0.162,3.892-0.486c1.298-0.324,2.473-0.811,3.527-1.46
		c1.054-0.648,1.918-1.485,2.594-2.513c0.676-1.026,1.014-2.271,1.014-3.729c0-1.405-0.434-2.554-1.297-3.446
		c-0.865-0.892-1.986-1.661-3.365-2.311c-1.378-0.648-2.946-1.216-4.702-1.702c-1.757-0.486-3.526-1-5.311-1.54
		c-1.838-0.54-3.621-1.188-5.351-1.946c-1.73-0.756-3.283-1.729-4.662-2.919c-1.378-1.188-2.486-2.647-3.324-4.378
		c-0.838-1.729-1.256-3.837-1.256-6.323c0-3.243,0.675-6,2.026-8.27c1.351-2.271,3.107-4.121,5.271-5.554
		c2.161-1.432,4.606-2.485,7.337-3.162c2.729-0.675,5.499-1.014,8.31-1.014c2.973,0,5.77,0.339,8.392,1.014
		c2.621,0.677,4.918,1.771,6.892,3.283c1.972,1.514,3.539,3.446,4.702,5.797c1.161,2.352,1.743,5.203,1.743,8.554h-12.08
		c0.053-1.622-0.176-2.986-0.689-4.095c-0.514-1.106-1.244-2.013-2.188-2.716c-0.946-0.702-2.067-1.202-3.365-1.5
		c-1.297-0.296-2.675-0.445-4.135-0.445c-1.189,0-2.392,0.121-3.607,0.364s-2.311,0.648-3.283,1.217
		c-0.974,0.567-1.758,1.311-2.352,2.229c-0.596,0.919-0.892,2.055-0.892,3.404c0,1.406,0.526,2.582,1.581,3.527
		c1.054,0.946,2.323,1.73,3.811,2.351c1.485,0.622,3.012,1.108,4.58,1.46c1.567,0.352,2.838,0.636,3.811,0.851
		c2.271,0.596,4.351,1.285,6.243,2.068c1.891,0.783,3.526,1.797,4.904,3.04c1.379,1.244,2.445,2.756,3.203,4.54
		c0.756,1.783,1.135,3.973,1.135,6.567c0,3.459-0.717,6.404-2.148,8.837c-1.433,2.432-3.271,4.405-5.513,5.918
		c-2.244,1.514-4.771,2.608-7.581,3.284c-2.811,0.675-5.594,1.013-8.351,1.013c-8.107,0-14.147-1.647-18.12-4.945
		c-3.973-3.296-5.959-8.485-5.959-15.566h12.08C1822.167,817.777,1822.41,819.493,1823.005,820.871z"/>
	<path fill="#F2D148" d="M1880.812,822.452l-2.676,12.485h-12.729l2.594-12.485H1880.812z"/>
	<path fill="#F2D148" d="M1933.996,777.051l9.648,57.887h-12.647l-1.865-12.891h-21.646l-7.297,12.891h-13.378l34.133-57.887
		H1933.996z M1927.997,812.561l-2.838-23.024h-0.162l-12.485,23.024H1927.997z"/>
	<path fill="#F2D148" d="M1966.994,822.452l-2.676,12.485h-12.729l2.594-12.485H1966.994z"/>
	<path fill="#F2D148" d="M2038.583,777.051c8.161,0,14.296,1.959,18.404,5.877c4.106,3.92,6.161,9.474,6.161,16.661
		c0,5.026-0.703,9.702-2.107,14.026c-1.406,4.324-3.5,8.066-6.283,11.229c-2.784,3.162-6.271,5.635-10.459,7.418
		c-4.189,1.784-9.067,2.676-14.634,2.676h-24.16l12.161-57.887H2038.583z M2030.232,824.235c3.243,0,6.121-0.594,8.635-1.783
		c2.513-1.188,4.621-2.81,6.323-4.864c1.703-2.054,3-4.432,3.892-7.135c0.893-2.702,1.338-5.595,1.338-8.675
		c0-2.108-0.23-4.014-0.688-5.716c-0.46-1.703-1.204-3.175-2.23-4.419c-1.027-1.242-2.338-2.201-3.932-2.878
		c-1.595-0.675-3.526-1.014-5.797-1.014h-9.566l-7.783,36.483H2030.232z"/>
	<path fill="#F2D148" d="M2125.9,777.051l-2.189,10.701h-31.456l-2.595,12.404h29.105l-2.107,9.892h-29.106l-2.999,14.188h31.943
		l-2.271,10.702h-44.591l12.08-57.887H2125.9z"/>
	<path fill="#F2D148" d="M2196.8,789.09c-1.919-1.811-4.419-2.716-7.499-2.716c-3.243,0-6.068,0.743-8.473,2.229
		c-2.405,1.487-4.378,3.405-5.918,5.756c-1.541,2.352-2.689,4.974-3.446,7.864c-0.758,2.893-1.135,5.716-1.135,8.473
		c0,2,0.256,3.892,0.771,5.675c0.513,1.784,1.297,3.365,2.351,4.743s2.404,2.473,4.054,3.283c1.648,0.812,3.635,1.217,5.959,1.217
		c1.729,0,3.365-0.311,4.905-0.933c1.54-0.621,2.904-1.459,4.094-2.514c1.188-1.054,2.189-2.282,3-3.688
		c0.811-1.405,1.351-2.864,1.622-4.378h12.729c-1.298,4.054-2.825,7.486-4.581,10.296c-1.757,2.812-3.729,5.096-5.918,6.852
		c-2.189,1.757-4.621,3.027-7.297,3.811c-2.676,0.782-5.582,1.175-8.716,1.175c-8.216,0-14.553-2.188-19.012-6.566
		s-6.688-10.702-6.688-18.972c0-4.702,0.729-9.161,2.188-13.377c1.46-4.216,3.554-7.932,6.283-11.148
		c2.729-3.215,6.053-5.769,9.973-7.661c3.918-1.892,8.31-2.838,13.175-2.838c3.351,0,6.458,0.46,9.323,1.379
		c2.864,0.919,5.337,2.283,7.418,4.094c2.08,1.812,3.689,4.054,4.824,6.729c1.135,2.675,1.675,5.77,1.621,9.283h-12.729
		C2199.678,793.59,2198.718,790.901,2196.8,789.09z"/>
	<path fill="#F2D148" d="M2233.162,822.452l-2.676,12.485h-12.729l2.594-12.485H2233.162z"/>
	<path fill="#F2D148" d="M2257.81,834.938l-6.648-57.887h12.729l3.811,43.455h0.162l21.971-43.455h13.215l-30.889,57.887H2257.81z"
		/>
	<path fill="#F2D148" d="M2304.428,822.452l-2.676,12.485h-12.729l2.594-12.485H2304.428z"/>
</g>
<path fill-rule="evenodd" clip-rule="evenodd" fill="#F3F3F4" d="M908.409,177.191c-8.588-0.249-17.147,0.732-26.946,1.35
	c-8.822,0.558-19.963,3.061-28.307,1.35c-4.219-0.867-8.449-5.972-14.146-10.111c-63.89-46.352-155.98-73.912-268.861-69.403
	c-7.601,0.302-17.166-0.287-22.245,1.342c-4.919,1.584-8.233,8.152-12.125,12.133c-4.144,4.23-8.034,7.359-11.454,12.132
	c12.812,5.557,25.117,13.92,23.579,30.32c-0.701,7.495-6.062,15.359-10.779,20.215c-13.485,13.904-40.27,23.36-64.014,23.586
	c-4.215,6.786-7.36,14.643-10.783,22.23c29.012,5.594,58.292,10.887,84.909,18.872c-9.49,4.661-21.438,6.87-30.999,11.455
	c-19.247-5.014-40.265-8.256-60.644-12.125c-5.942,12.026-9.52,26.413-12.808,41.094c-9.855,4.072-18.918,8.943-28.974,12.804
	c4.147-19.885,8.894-39.173,15.503-56.599c-60.734-5.572-126.748-3.407-182.614,6.743c-7.721,1.401-17.821,1.545-23.582,4.041
	c-5.72,2.473-15.963,16.701-20.216,22.236c-37.114,48.296-74.255,120.021-55.256,204.172c1.184,5.233,4.407,12.757,4.042,16.846
	c-0.347,3.936-6.107,10.979-8.758,15.503c-8.547,14.544-17.444,32.25-20.891,49.857c-18.259-32.011-33.015-67.321-33.015-114.554
	c0-66.176,23.243-120.014,53.231-162.392c30.856-43.598,66.529-77.281,108.487-107.141c86.979-61.899,191.859-98.87,326.138-105.121
	c126.615-5.889,234.119,28.843,303.894,83.563C890.87,159.495,901.302,166.99,908.409,177.191z M505.456,113.853
	c4.076-4.434,9.075-8.422,0.675-6.733c-26.723,5.376-52.639,9.817-77.489,17.516c-71.192,22.063-136.353,58.378-183.288,102.422
	c56.198-9.961,127.097-12.962,190.697-7.413c3.962-7.276,7.774-14.681,10.779-22.907c-18.957-3.605-33.26-21.603-24.253-40.432
	c10.662-22.297,44.809-34.467,75.468-35.041C499.907,120.194,502.663,116.884,505.456,113.853z"/>
<path fill-rule="evenodd" clip-rule="evenodd" fill="#F3F3F4" d="M1225.787,208.862c-30.813,7.313-68.964,0.233-103.773-1.35
	c-183.813-8.347-354.049,13.927-493.245,62.675c-78.82,27.599-151.11,61.424-218.325,103.093
	c-48.711,30.199-95.869,62.412-132.742,107.813c-12.374,15.218-25.045,32.318-28.299,51.893
	c-2.737,16.409,3.744,30.071,11.454,39.074c10.576,12.367,28.009,22.97,44.474,32.35c59.829,34.082,147.177,52.481,237.862,42.444
	c-7.273-10.021-17.32-19.491-26.283-29.647c-8.931-10.112-17.078-21.046-25.603-30.999c-14.666,6.83-41.63,7.351-52.561-3.371
	c-11.876,6.704-28.167,14.637-42.452,22.245c-4.377,2.328-10.617,7.163-14.146,7.41c-7.922,0.56-13.716-6.83-22.237-8.082
	c21.49-12.879,45.386-23.346,67.377-35.712c-5.538-24.883,8.642-40.439,21.57-51.215c-17.441-36.464-31.474-76.338-37.74-123.986
	c6.33-6.478,17.43-11.771,24.261-15.503c4.619,50.197,18.402,91.201,35.711,128.693c16.607-6.017,40.998-3.213,51.211,6.74
	c71.362-43.402,137.541-92.007,198.78-145.537c-28.073-31.678-62.955-56.53-102.421-76.814c8.102-2.587,16.513-9.743,24.936-9.441
	c6.372,0.227,20.76,11.273,26.279,14.824c24.688,15.903,49.413,36.481,67.381,55.264c11.541-10.338,25.449-23.64,37.736-37.069
	c1.982-2.165,11.507-12.041,11.457-12.795c-0.071-1.004-8.249-6.862-9.44-8.084c-6.546-6.801-11.289-15.736-7.405-28.306
	c12.113-39.3,104.201-44.188,111.858,3.37c11.533,1.712,23.017,3.477,34.358,5.391c-3.242-16.754-12.917-32.913-20.879-47.172
	c16.288-1.667,32.288-3.635,49.854-4.043c25.687,43.75,27.27,103.711,12.811,151.624c-13.98,46.253-40.763,85.146-68.066,116.559
	c-56.203,64.698-132.094,118.197-212.926,156.335c-40.002,18.874-85.185,36.715-134.77,49.864
	c-97.418,25.819-229.669,28.155-319.393-8.09c-41.024-16.566-86.949-43.908-87.604-97.03
	c-0.551-44.323,25.384-79.468,46.494-106.463c23.055-29.483,49.556-54.441,76.821-76.142
	c57.47-45.74,122.939-83.631,192.044-113.884c107.918-47.24,224.949-81.248,362.52-96.359c22.776-2.502,46.284-4.869,70.081-6.062
	C998.6,187.598,1119.121,193.758,1225.787,208.862z M981.181,195.387c-13.46-3.491-37.819,3.076-49.865,1.35
	c0.634,2.059,4.371,5.466,7.416,6.063c13.159,2.585,33.145-4.307,49.187-1.342C986.821,199.301,984.077,196.141,981.181,195.387z
	 M1019.592,201.458c13.015,3.566,33.133-1.622,45.816,0c-3.548-3.922-6.839-3.688-14.142-4.05
	c-11.714-0.588-30.938-2.458-38.415-1.343C1015.271,197.272,1016.489,200.604,1019.592,201.458z M879.435,200.107
	c-20.461,1.9-49.827,3.529-68.052,8.084c12.603,7.646,29.736,2.631,47.836,0.671c12.589-1.359,24.748-2.354,35.723-4.034
	C890.187,201.088,886.221,199.475,879.435,200.107z M750.73,216.952c-21.437,4.607-43.791,8.317-64.006,14.154
	c4.495,1.788,10.089,2.481,14.142,4.712c20.514-5.542,43.395-8.717,64.014-14.146C759.877,220.391,755.406,218.559,750.73,216.952z
	 M614.615,251.322c-23.413,5.587-50.306,16.377-71.423,24.25c14.776,5.022,24.224,0.649,35.715-3.363
	c17.754-6.199,36.586-11.039,53.228-17.524C626.631,254.617,619.23,250.212,614.615,251.322z M808,308.591
	c-18.316,20.314-38.249,39.007-57.27,58.627c32.209,38.546,56.26,85.237,66.711,145.543c15.081-10.54,27.749-25.636,40.435-40.431
	c37.076-43.251,73.534-98.893,62.665-180.593c-14.625-2.216-28.567-5.121-43.802-6.733C863.634,302.28,839.775,312.204,808,308.591z
	 M466.375,305.899c-29.54,10.993-62.174,31.534-88.275,46.494c19.465,4.773,28.574-3.86,41.11-10.783
	c22.881-12.645,45.472-22.545,67.38-33.689C480.758,308.07,470.465,304.376,466.375,305.899z M734.561,382.722
	c-0.147-0.536-0.569-0.785-1.354-0.68c-61.488,54.849-131.038,101.661-201.472,147.568c2.997,22.017-9.689,33.766-19.541,45.143
	c14.078,18.029,28.517,35.252,45.147,51.887c4.744,4.743,11.376,14.823,17.521,15.495c7.861,0.868,24.125-6.733,32.345-9.426
	c73.353-24.017,140.176-61.099,190.697-103.099C788.697,468.735,765.868,421.494,734.561,382.722z M315.435,392.146
	c-26.143,19.454-51.694,39.503-72.772,64.018c7.427-0.467,12.789,1.139,20.212,0.671c21.841-23.533,46.856-43.885,72.772-63.339
	C328.69,393.271,322.398,392.372,315.435,392.146z M192.126,518.155c-8.139,23.909-26.558,53.204-14.828,84.233
	c13.286-7.39,25.92-15.406,39.086-22.922c-13.136-24.145-0.06-49.73,7.409-68.725c-0.449,0-0.898,0-1.342,0
	C212.515,513.396,202.664,516.118,192.126,518.155z M259.507,617.883c-11.903,9.66-25.249,17.879-36.386,28.308
	c22.799,11.333,47.331,20.947,76.139,26.271c8.491-7.458,17.667-14.243,25.608-22.236
	C300.912,641.613,279.697,630.258,259.507,617.883z"/>
<path fill-rule="evenodd" clip-rule="evenodd" fill="#F2D148" d="M363.282,787.016c-0.878-2.075,1.927-4.54,3.364-6.07
	c12.724-13.527,27.65-29.86,40.432-43.795c76.807,2.488,143.836-13.324,202.826-35.031c58.026-21.363,110.854-51.118,156.331-83.571
	c92.886-66.272,172.46-149.852,223.716-256.728c1.019-2.701-1.893,7.615-2.703,10.118c-19.851,60.958-53.149,113.981-89.618,159.691
	c-78.96,98.93-175.628,176.408-304.576,226.416C528.963,782.891,450.339,796.765,363.282,787.016z"/>
<path fill-rule="evenodd" clip-rule="evenodd" fill="#F2D148" d="M527.357,516.328c12.483,20.143,1.121,49.768-25.385,66.222
	c-26.5,16.444-58.117,13.459-70.608-6.674c-12.487-20.14-1.127-49.782,25.385-66.235
	C483.25,493.203,514.863,496.196,527.357,516.328z"/>
<path fill-rule="evenodd" clip-rule="evenodd" fill="#F2D148" d="M884.901,284.146c-3.551,22.861-33.574,37.166-67.075,31.978
	c-33.502-5.188-57.797-27.929-54.253-50.8c3.548-22.861,33.574-37.188,67.091-31.994
	C864.158,238.525,888.441,261.268,884.901,284.146z"/>
<path fill-rule="evenodd" clip-rule="evenodd" fill="#F2D148" d="M551.6,150.55c3.284,22.273-24.124,44.758-61.233,50.247
	c-37.108,5.496-69.873-8.097-73.171-30.37c-3.291-22.279,24.121-44.791,61.246-50.277C515.543,114.662,548.293,128.262,551.6,150.55
	z"/>
</svg>
